<svg xmlns="http://www.w3.org/2000/svg" width="385.539" height="357.089" viewBox="0 0 385.539 357.089">
  <g id="Social_media-amico_1_" data-name="Social media-amico (1)" transform="translate(-38.561 -44.394)">
    <g id="freepik--Floor--inject-2" transform="translate(38.561 200.083)">
      <path id="Path_4389" data-name="Path 4389" d="M95.021,389.578c75.284,39.327,197.335,39.327,272.62,0s75.275-103.084,0-142.411-197.335-39.327-272.62,0S19.746,350.251,95.021,389.578Z" transform="translate(-38.561 -217.673)" fill="#f5f5f5"/>
      <ellipse id="freepik--floor--inject-7" cx="183.79" cy="107.273" rx="183.79" ry="107.273" transform="translate(12.511 -13.147)" fill="#f0f0f0"/>
    </g>
    <g id="freepik--Shadow--inject-2" transform="translate(70.196 249.74)">
      <ellipse id="Ellipse_146" data-name="Ellipse 146" cx="26.568" cy="12.66" rx="26.568" ry="12.66" transform="translate(271.91)" fill="#e6e6e6"/>
      <ellipse id="Ellipse_147" data-name="Ellipse 147" cx="24.358" cy="11.608" rx="24.358" ry="11.608" transform="translate(0 76.165)" fill="#e6e6e6"/>
      <ellipse id="Ellipse_148" data-name="Ellipse 148" cx="25.346" cy="12.085" rx="25.346" ry="12.085" transform="translate(179.86 97.531)" fill="#e6e6e6"/>
      <ellipse id="Ellipse_149" data-name="Ellipse 149" cx="25.346" cy="12.085" rx="25.346" ry="12.085" transform="translate(54.053 39.704)" fill="#e6e6e6"/>
    </g>
    <g id="freepik--Plants--inject-2" transform="translate(294.387 143.442)">
      <path id="Path_4390" data-name="Path 4390" d="M327.657,246.889c.62-7.448,17.691-35.391,22.911-39.722s14.439-15.274,10.467-21.492-15.643-3.45-26.6,15.93c-8.5,15.032-11.141,48.276-11.141,48.276Z" transform="translate(-323.29 -157.483)" fill="#f12e52"/>
      <path id="Path_4391" data-name="Path 4391" d="M325.5,246.574h-.072a.44.44,0,0,1-.368-.512c4.825-31.2,15.077-50.657,31.339-59.5a.45.45,0,1,1,.431.791c-16,8.7-26.1,27.952-30.89,58.851A.449.449,0,0,1,325.5,246.574Z" transform="translate(-323.469 -157.868)" fill="#fff"/>
      <path id="Path_4392" data-name="Path 4392" d="M330.056,207.9s13.7-23.684,25.05-34.529c6.289-6.011,10.153-9.883,9.812-14.43-.252-3.45-3.118-5.292-9.281-3.774-12.282,3.019-18.868,15.463-23.109,29.4C329.517,194.379,330.056,207.9,330.056,207.9Z" transform="translate(-323.973 -154.633)" fill="#f12e52"/>
      <path id="Path_4393" data-name="Path 4393" d="M330.056,207.9s13.7-23.684,25.05-34.529c6.289-6.011,10.153-9.883,9.812-14.43-.252-3.45-3.118-5.292-9.281-3.774-12.282,3.019-18.868,15.463-23.109,29.4C329.517,194.379,330.056,207.9,330.056,207.9Z" transform="translate(-323.973 -154.633)" opacity="0.2"/>
      <path id="Path_4394" data-name="Path 4394" d="M331.78,204.42h-.063a.458.458,0,0,1-.377-.521c4.879-30.782,23.424-42.373,28.994-45.194a.449.449,0,0,1,.6.2.44.44,0,0,1-.2.6c-5.472,2.776-23.693,14.169-28.509,44.538A.449.449,0,0,1,331.78,204.42Z" transform="translate(-324.107 -155.041)" fill="#fff"/>
    </g>
    <g id="freepik--social-media--inject-2" transform="translate(61.418 70.949)">
      <path id="Path_4395" data-name="Path 4395" d="M117.307,89.8,111.072,86.2h0c-2.309-1.375-5.732-1.105-9.56,1.105-5.292,3.055-9.82,10.476-11.68,16.7l-4.421-2.543h0c-2.273-1.527-5.391-1.8-8.832.234C69.634,105.711,64,114.588,64,121.525c0,6.586,4.061,10.782,9.057,13.477h0l4.915,2.839.063-.7c.988.332,1.968.629,2.92.9l8.086,2.138,8.086-11.5c7.718-10.953,16.91-26.056,16.91-36.029q0-.566-.054-1.105l1.707.9Z" transform="translate(-64 -75.108)" fill="#f28f8f"/>
      <path id="Path_4396" data-name="Path 4396" d="M117.307,89.8,111.072,86.2h0c-2.309-1.375-5.732-1.105-9.56,1.105-5.292,3.055-9.82,10.476-11.68,16.7l-4.421-2.543h0c-2.273-1.527-5.391-1.8-8.832.234C69.634,105.711,64,114.588,64,121.525c0,6.586,4.061,10.782,9.057,13.477h0l4.915,2.839.063-.7c.988.332,1.968.629,2.92.9l8.086,2.138,8.086-11.5c7.718-10.953,16.91-26.056,16.91-36.029q0-.566-.054-1.105l1.707.9Z" transform="translate(-64 -75.108)" fill="#e6e6e6"/>
      <path id="Path_4397" data-name="Path 4397" d="M96.17,144.259l-8.086-2.147c-7.736-2.049-16.963-6.568-16.963-16.478,0-6.945,5.634-15.822,12.579-19.83,6.388-3.693,11.68.252,12.462,5.966.809-6.631,6.083-16.676,12.471-20.36,6.936-4.007,12.579-1.626,12.579,5.31,0,9.883-9.2,25.077-16.91,36.038Z" transform="translate(-64.723 -75.524)" fill="#f0f0f0"/>
      <path id="Path_4398" data-name="Path 4398" d="M183.167,90.32a4.1,4.1,0,0,0-.189-1.33l4.843-5.544-6.2-3.486a2.3,2.3,0,0,0-2.561.207l-10.782,6.244-1.447.836a29.345,29.345,0,0,0,.521-3.774c0-.53.045-1.042.045-1.545l.2.108L171.19,77.8l-6.146-3.459c-2.076-1.357-5.669,1.213-5.669,2.228,0,1.231.53,7.637,0,9.47s-6.065,14.493-6.065,14.493v26.4l20.216-11.68c2.7-1.545,4.492-4.816,4.492-7.035a6.927,6.927,0,0,0-.539-2.893c1.716-.988,3.432-4.573,3.432-6.1,0-2.3-.791-2.893-.791-2.893a8.715,8.715,0,0,0,3.046-6Z" transform="translate(-73.066 -73.95)" fill="#fafafa"/>
      <path id="Path_4399" data-name="Path 4399" d="M159.775,133.511l-6.388-3.693-.027-26.389,6.4,3.693Z" transform="translate(-73.071 -76.942)" fill="#e6e6e6"/>
      <path id="Path_4400" data-name="Path 4400" d="M188.111,103.2c0,1.527-1.707,5.112-3.423,6.1a7.188,7.188,0,0,1,.521,2.911c0,2.2-1.842,5.49-4.492,7.017L160.5,130.906v-26.38s5.553-12.669,6.074-14.5,0-8.23,0-9.461,5.023-4.573,6.613-1.069,1.725,7.08.8,11.734l12.219-7.062c2.579-1.491,3.594.647,3.594,2.318a9.066,9.066,0,0,1-1.968,5.265s2.435-.719,2.435,2.552a8.572,8.572,0,0,1-2.974,5.993S188.111,100.914,188.111,103.2Z" transform="translate(-73.796 -74.355)" fill="#f0f0f0"/>
      <path id="Path_4401" data-name="Path 4401" d="M147.44,144.365l8.832-5.094-.027-30.71-8.805,5.094Z" transform="translate(-72.47 -77.463)" fill="#f0f0f0"/>
      <path id="Path_4402" data-name="Path 4402" d="M146.717,144.523l-6.4-3.684V110.12l6.4,3.693Z" transform="translate(-71.747 -77.621)" fill="#e6e6e6"/>
      <path id="Path_4403" data-name="Path 4403" d="M149.134,104.45l6.388,3.693-8.805,5.094-6.4-3.693Z" transform="translate(-71.747 -77.046)" fill="#f5f5f5"/>
      <path id="Path_4404" data-name="Path 4404" d="M165.823,89.925c-.521,1.8-6.074,14.5-6.074,14.5l-6.379-3.594s5.535-12.66,6.065-14.493,0-8.239,0-9.47l6.4,3.594C165.823,81.695,166.362,88.1,165.823,89.925Z" transform="translate(-73.072 -74.246)" fill="#e6e6e6"/>
    </g>
    <g id="freepik--speech-bubble--inject-2" transform="translate(77.285 88.445)">
      <path id="Path_4405" data-name="Path 4405" d="M414.59,134.227l-2.965-5.571,2.381-6.882V117.56l-7.3,4.214v4.214l3.136,5.445a.441.441,0,0,0,.216.189h0Z" transform="translate(-114.656 -95.872)" fill="#f12e52"/>
      <path id="Path_4406" data-name="Path 4406" d="M414.59,134.227l-2.965-5.571,2.381-6.882V117.56l-7.3,4.214v4.214l3.136,5.445a.441.441,0,0,0,.216.189h0Z" transform="translate(-114.656 -95.872)" opacity="0.1"/>
      <path id="Path_4407" data-name="Path 4407" d="M396.391,105.622l20.09-11.68a4.87,4.87,0,0,1,4.376,0l1.8,1.033a4.816,4.816,0,0,1,2.192,3.792v16.281a4.843,4.843,0,0,1-2.192,3.792l-20.108,11.68a4.87,4.87,0,0,1-4.376,0l-1.8-1.033a4.825,4.825,0,0,1-2.183-3.792V109.4A4.852,4.852,0,0,1,396.391,105.622Z" transform="translate(-113.385 -93.422)" fill="#f12e52"/>
      <path id="Path_4408" data-name="Path 4408" d="M396.391,105.622l20.09-11.68a4.87,4.87,0,0,1,4.376,0l1.8,1.033a4.816,4.816,0,0,1,2.192,3.792v16.281a4.843,4.843,0,0,1-2.192,3.792l-20.108,11.68a4.87,4.87,0,0,1-4.376,0l-1.8-1.033a4.825,4.825,0,0,1-2.183-3.792V109.4A4.852,4.852,0,0,1,396.391,105.622Z" transform="translate(-113.385 -93.422)" fill="#fff" opacity="0.3"/>
      <path id="Path_4409" data-name="Path 4409" d="M403.252,130.926c-1.213.692-2.192.135-2.192-1.267V113.378a4.843,4.843,0,0,1,2.192-3.792l20.108-11.68c1.213-.7,2.192-.135,2.192,1.267v16.281a4.843,4.843,0,0,1-2.192,3.792" transform="translate(-114.083 -93.847)" fill="#f12e52"/>
      <path id="Path_4410" data-name="Path 4410" d="M394.21,127.233a4.825,4.825,0,0,0,2.183,3.792l1.8,1.033a4.879,4.879,0,0,0,4,.171c-1.024.4-1.8-.189-1.8-1.438V114.51a4.492,4.492,0,0,1,.647-2.156l-6.164-3.594a4.493,4.493,0,0,0-.638,2.156Z" transform="translate(-113.387 -94.979)" fill="#f12e52"/>
      <path id="Path_4411" data-name="Path 4411" d="M394.21,127.233a4.825,4.825,0,0,0,2.183,3.792l1.8,1.033a4.879,4.879,0,0,0,4,.171c-1.024.4-1.8-.189-1.8-1.438V114.51a4.492,4.492,0,0,1,.647-2.156l-6.164-3.594a4.493,4.493,0,0,0-.638,2.156Z" transform="translate(-113.387 -94.979)" opacity="0.1"/>
      <path id="Path_4412" data-name="Path 4412" d="M411.8,128.928l3.136,5.436a.476.476,0,0,0,.854-.081l3.315-9.569V120.5l-7.3,4.214Z" transform="translate(-115.173 -96.171)" fill="#f12e52"/>
      <path id="Path_4413" data-name="Path 4413" d="M413.916,121.977l-2.246-.593c-2.138-.566-4.69-1.8-4.69-4.555a7.188,7.188,0,0,1,3.477-5.49,2.183,2.183,0,0,1,3.45,1.653c.225-1.8,1.68-4.618,3.45-5.643,1.923-1.105,3.477-.449,3.477,1.474,0,2.749-2.543,6.936-4.681,9.973Z" transform="translate(-114.684 -94.782)" fill="#fff"/>
      <path id="Path_4414" data-name="Path 4414" d="M83.852,182.326l20.108-11.635a4.816,4.816,0,0,1,4.376,0l1.8,1.024a4.852,4.852,0,0,1,2.183,3.792v16.281a4.852,4.852,0,0,1-2.183,3.792L90.052,207.214a4.834,4.834,0,0,1-4.385,0l-1.8-1.024a4.843,4.843,0,0,1-2.21-3.828V186.118a4.816,4.816,0,0,1,2.192-3.792Z" transform="translate(-81.66 -101.212)" fill="#f12e52"/>
      <path id="Path_4415" data-name="Path 4415" d="M83.852,182.326l20.108-11.635a4.816,4.816,0,0,1,4.376,0l1.8,1.024a4.852,4.852,0,0,1,2.183,3.792v16.281a4.852,4.852,0,0,1-2.183,3.792L90.052,207.214a4.834,4.834,0,0,1-4.385,0l-1.8-1.024a4.843,4.843,0,0,1-2.21-3.828V186.118a4.816,4.816,0,0,1,2.192-3.792Z" transform="translate(-81.66 -101.212)" fill="#fff" opacity="0.3"/>
      <path id="Path_4416" data-name="Path 4416" d="M102.04,210.946l-2.965-5.58,2.39-6.882V194.27l-7.3,4.25v4.214l3.145,5.391a.458.458,0,0,0,.207.189h0Z" transform="translate(-82.929 -103.659)" fill="#f12e52"/>
      <path id="Path_4417" data-name="Path 4417" d="M102.04,210.946l-2.965-5.58,2.39-6.882V194.27l-7.3,4.25v4.214l3.145,5.391a.458.458,0,0,0,.207.189h0Z" transform="translate(-82.929 -103.659)" opacity="0.1"/>
      <path id="Path_4418" data-name="Path 4418" d="M90.752,207.637c-1.213.7-2.192.135-2.192-1.267V190.09a4.825,4.825,0,0,1,2.192-3.783l20.117-11.68c1.2-.692,2.183-.126,2.183,1.267v16.281a4.852,4.852,0,0,1-2.183,3.792" transform="translate(-82.36 -101.635)" fill="#f12e52"/>
      <path id="Path_4419" data-name="Path 4419" d="M81.66,203.921a4.843,4.843,0,0,0,2.192,3.792l1.8,1.024a4.933,4.933,0,0,0,4.007.18c-1.033.386-1.8-.2-1.8-1.447V191.225a4.492,4.492,0,0,1,.638-2.156l-6.155-3.549a4.492,4.492,0,0,0-.647,2.156Z" transform="translate(-81.66 -102.771)" fill="#f12e52"/>
      <path id="Path_4420" data-name="Path 4420" d="M81.66,203.921a4.843,4.843,0,0,0,2.192,3.792l1.8,1.024a4.933,4.933,0,0,0,4.007.18c-1.033.386-1.8-.2-1.8-1.447V191.225a4.492,4.492,0,0,1,.638-2.156l-6.155-3.549a4.492,4.492,0,0,0-.647,2.156Z" transform="translate(-81.66 -102.771)" opacity="0.1"/>
      <path id="Path_4421" data-name="Path 4421" d="M99.26,205.633l3.136,5.391a.467.467,0,0,0,.845-.081l3.315-9.569V197.16l-7.3,4.214Z" transform="translate(-83.447 -103.953)" fill="#f12e52"/>
      <path id="Path_4422" data-name="Path 4422" d="M93.468,195.736a4.492,4.492,0,0,0-2.058,3.594c0,1.312.9,1.8,2.058,1.186a4.564,4.564,0,0,0,2.058-3.594C95.534,195.611,94.636,195.045,93.468,195.736Z" transform="translate(-82.65 -103.778)" fill="#fff"/>
      <path id="Path_4423" data-name="Path 4423" d="M101.917,190.848a4.546,4.546,0,0,0-2.067,3.594c0,1.312.9,1.842,2.067,1.186a4.564,4.564,0,0,0,2.058-3.594C103.974,190.722,103.049,190.192,101.917,190.848Z" transform="translate(-83.506 -103.283)" fill="#fff"/>
      <path id="Path_4424" data-name="Path 4424" d="M110.358,185.968a4.564,4.564,0,0,0-2.058,3.594c0,1.312.9,1.8,2.058,1.186a4.492,4.492,0,0,0,2.058-3.594C112.415,185.833,111.5,185.3,110.358,185.968Z" transform="translate(-84.364 -102.787)" fill="#fff"/>
    </g>
    <g id="freepik--Devices--inject-2" transform="translate(190.504 44.394)">
      <path id="Path_4425" data-name="Path 4425" d="M311.1,52.37,223.75,102.775a8.608,8.608,0,0,0-3.89,6.739V302.86c0,2.48,1.743,3.486,3.89,2.246L311.1,254.7a8.608,8.608,0,0,0,3.89-6.739V54.616C314.992,52.136,313.249,51.13,311.1,52.37Z" transform="translate(-208.907 -45.15)" fill="#37474f"/>
      <path id="Path_4426" data-name="Path 4426" d="M222.642,102.02l87.351-50.405c1.923-1.105,3.513-.413,3.828,1.518a8.7,8.7,0,0,0-3.828-6.011l-3.172-1.8a8.6,8.6,0,0,0-7.781,0L211.689,95.7a7.934,7.934,0,0,0-2.749,2.9l10.953,6.289A7.934,7.934,0,0,1,222.642,102.02Z" transform="translate(-207.799 -44.394)" fill="#455a64"/>
      <path id="Path_4427" data-name="Path 4427" d="M207.67,301.9a8.59,8.59,0,0,0,3.89,6.739l3.172,1.8a8.68,8.68,0,0,0,7.116.314c-1.8.692-3.226-.341-3.226-2.561V114.856a7.907,7.907,0,0,1,1.141-3.837l-10.953-6.289a7.951,7.951,0,0,0-1.141,3.837Z" transform="translate(-207.67 -50.519)" fill="#263238"/>
      <path id="Path_4428" data-name="Path 4428" d="M226.256,129.872,309.42,81.884c1.285-.746,2.336-.144,2.336,1.348V229.6a5.184,5.184,0,0,1-2.336,4.043l-83.164,47.979c-1.285.746-2.336.144-2.336-1.348V133.915A5.148,5.148,0,0,1,226.256,129.872Z" transform="translate(-209.32 -48.168)" fill="#fafafa"/>
      <path id="Path_4429" data-name="Path 4429" d="M271.666,88.809a3.037,3.037,0,0,0-1.366,2.372c0,.9.611,1.231,1.366.791a3.019,3.019,0,0,0,1.366-2.372C273.031,88.728,272.42,88.378,271.666,88.809Z" transform="translate(-214.028 -48.884)" fill="#263238"/>
      <path id="Path_4430" data-name="Path 4430" d="M257.125,104.268a6.056,6.056,0,0,0-2.7,4.744c0,1.743,1.222,2.453,2.7,1.581a6.047,6.047,0,0,0,2.74-4.744C259.866,104.106,258.635,103.4,257.125,104.268Z" transform="translate(-212.417 -50.434)" fill="#263238"/>
      <path id="Path_4431" data-name="Path 4431" d="M264.88,102.079c0,1.168.9,1.608,1.95.988l17.97-10.4a4.178,4.178,0,0,0,1.941-3.235c0-1.159-.9-1.6-1.941-.979l-17.97,10.4a4.169,4.169,0,0,0-1.95,3.226Z" transform="translate(-213.477 -48.839)" fill="#263238"/>
      <path id="Path_4432" data-name="Path 4432" d="M214.163,141.736a4.816,4.816,0,0,1,2.192,3.792c0,1.393-.979,1.959-2.192,1.267a4.861,4.861,0,0,1-2.183-3.8C212,141.6,212.959,141.045,214.163,141.736Z" transform="translate(-208.107 -54.246)" fill="#37474f"/>
      <path id="Path_4433" data-name="Path 4433" d="M214.165,160.507a4.843,4.843,0,0,1,2.192,3.792c0,1.4-.979,1.968-2.192,1.267A4.852,4.852,0,0,1,212,161.819C212,160.381,212.961,159.815,214.165,160.507Z" transform="translate(-208.11 -56.151)" fill="#37474f"/>
      <path id="Path_4434" data-name="Path 4434" d="M213.412,142.107A4.843,4.843,0,0,1,215.6,145.9c0,1.4-.979,1.968-2.192,1.267a4.861,4.861,0,0,1-2.192-3.792C211.22,141.981,212.208,141.415,213.412,142.107Z" transform="translate(-208.03 -54.283)" fill="#455a64"/>
      <path id="Path_4435" data-name="Path 4435" d="M213.412,160.886a4.843,4.843,0,0,1,2.192,3.792c0,1.4-.979,1.968-2.192,1.267a4.861,4.861,0,0,1-2.192-3.792C211.22,160.751,212.208,160.185,213.412,160.886Z" transform="translate(-208.03 -56.189)" fill="#455a64"/>
      <path id="Path_4436" data-name="Path 4436" d="M272.191,284.636a11.932,11.932,0,0,0-5.391,9.353c0,3.45,2.417,4.843,5.391,3.127a11.95,11.95,0,0,0,5.391-9.362C277.591,284.3,275.174,282.911,272.191,284.636Z" transform="translate(-213.672 -68.706)" fill="#263238"/>
      <path id="Path_4437" data-name="Path 4437" d="M245.615,279.373c-.764,0-.845-.9-.845-1.222V131.787a4.762,4.762,0,0,1,2.111-3.657l83.164-47.988a1.8,1.8,0,0,1,.818-.252c.764,0,.845.845.845,1.213V227.476a4.735,4.735,0,0,1-2.111,3.648l-83.164,47.988A1.689,1.689,0,0,1,245.615,279.373Z" transform="translate(-211.436 -47.998)" fill="#fff" stroke="#f12e52" stroke-width="1"/>
      <path id="Path_4438" data-name="Path 4438" d="M330.812,80.288c.341,0,.4.476.4.764V227.425a4.286,4.286,0,0,1-1.887,3.262l-83.164,47.988a1.312,1.312,0,0,1-.593.2c-.341,0-.4-.485-.4-.773V131.736a4.286,4.286,0,0,1,1.887-3.262l83.164-47.988a1.213,1.213,0,0,1,.593-.2m0-.9a2.121,2.121,0,0,0-1.042.314l-83.164,47.988a5.148,5.148,0,0,0-2.336,4.043V278.1c0,1.06.53,1.671,1.294,1.671a2.139,2.139,0,0,0,1.042-.323l83.164-47.979a5.157,5.157,0,0,0,2.336-4.043V81.052c0-1.051-.53-1.662-1.294-1.662Z" transform="translate(-211.385 -47.947)" fill="#f12e52" stroke="#f12e52" stroke-width="1"/>
      <path id="Path_4439" data-name="Path 4439" d="M332.076,81.052c0-1.491-1.042-2.093-2.336-1.348l-83.164,47.988a5.148,5.148,0,0,0-2.336,4.043V143.73l87.836-50.684Z" transform="translate(-211.382 -47.946)" fill="#f12e52"/>
      <path id="Path_4440" data-name="Path 4440" d="M332.076,81.052c0-1.491-1.042-2.093-2.336-1.348l-83.164,47.988a5.148,5.148,0,0,0-2.336,4.043V143.73l87.836-50.684Z" transform="translate(-211.382 -47.946)" opacity="0.1"/>
      <path id="Path_4441" data-name="Path 4441" d="M254.187,136.223a.961.961,0,0,0-.9.117,3.594,3.594,0,0,0-1.6,2.767.744.744,0,0,0,1.249.719,3.594,3.594,0,0,0,1.59-2.758A.9.9,0,0,0,254.187,136.223Z" transform="translate(-212.137 -53.71)" fill="#fff"/>
      <path id="Path_4442" data-name="Path 4442" d="M255.771,132.716l-.2.117v-.4c0-.566-.4-.8-.9-.512L250.9,134.09a1.977,1.977,0,0,0-.9,1.536v.413l-.207.117a2.615,2.615,0,0,0-1.186,2.049v3.657c0,.755.53,1.069,1.186.692l5.957-3.441a2.624,2.624,0,0,0,1.186-2.058v-3.675C256.957,132.644,256.427,132.338,255.771,132.716Zm-2.8,7.26a1.968,1.968,0,0,1-.961.288,1.258,1.258,0,0,1-.629-.162,1.581,1.581,0,0,1-.692-1.438,4.2,4.2,0,0,1,1.941-3.351,1.536,1.536,0,0,1,1.59-.126,1.554,1.554,0,0,1,.683,1.438,4.223,4.223,0,0,1-1.932,3.351Zm2.7-4.879a.341.341,0,0,1-.548-.323,1.2,1.2,0,0,1,.548-.952.344.344,0,0,1,.557.314,1.231,1.231,0,0,1-.521.961Z" transform="translate(-211.826 -53.266)" fill="#fff"/>
      <path id="Path_4443" data-name="Path 4443" d="M335.892,85.332l-5.813,3.351a2.561,2.561,0,0,0-1.159,2v3.594c0,.728.521,1.033,1.159.665l3.459-1.995,1.357,1.357a.225.225,0,0,0,.377-.162v-2.2l.62-.359a2.561,2.561,0,0,0,1.186-2V85.988C337.078,85.26,336.53,84.964,335.892,85.332Z" transform="translate(-219.978 -48.534)" fill="#fff"/>
      <path id="Path_4444" data-name="Path 4444" d="M256.108,148.537c3.037-1.725,5.5-.323,5.5,3.145a12.085,12.085,0,0,1-5.5,9.452c-3.046,1.8-5.508.35-5.508-3.145a11.986,11.986,0,0,1,5.508-9.452Z" transform="translate(-212.028 -54.891)" fill="#f12e52"/>
      <path id="Path_4445" data-name="Path 4445" d="M268.691,142.689l18.248-10.53c1.078-.62,1.95-.18,1.95.979a4.169,4.169,0,0,1-1.95,3.235L268.691,146.9c-1.069.62-1.941.18-1.941-.979A4.178,4.178,0,0,1,268.691,142.689Z" transform="translate(-213.667 -53.275)" fill="#f12e52"/>
      <g id="Group_746" data-name="Group 746" transform="translate(53.083 78.602)" opacity="0.7">
        <path id="Path_4446" data-name="Path 4446" d="M268.691,142.689l18.248-10.53c1.078-.62,1.95-.18,1.95.979a4.169,4.169,0,0,1-1.95,3.235L268.691,146.9c-1.069.62-1.941.18-1.941-.979A4.178,4.178,0,0,1,268.691,142.689Z" transform="translate(-266.75 -131.877)" fill="#fff"/>
      </g>
      <path id="Path_4447" data-name="Path 4447" d="M268.08,151.386,280.6,144.2c.737-.422,1.33-.126,1.33.674a2.866,2.866,0,0,1-1.33,2.219l-12.516,7.188c-.737.422-1.33.117-1.33-.683A2.857,2.857,0,0,1,268.08,151.386Z" transform="translate(-213.667 -54.506)" fill="#f12e52"/>
      <g id="Group_747" data-name="Group 747" transform="translate(53.083 89.5)" opacity="0.7">
        <path id="Path_4448" data-name="Path 4448" d="M268.08,151.386,280.6,144.2c.737-.422,1.33-.126,1.33.674a2.866,2.866,0,0,1-1.33,2.219l-12.516,7.188c-.737.422-1.33.117-1.33-.683A2.857,2.857,0,0,1,268.08,151.386Z" transform="translate(-266.75 -144.006)" fill="#fff"/>
      </g>
      <path id="Path_4449" data-name="Path 4449" d="M256.108,253.677c3.037-1.725,5.5-.314,5.5,3.145a12.085,12.085,0,0,1-5.5,9.452c-3.046,1.8-5.508.35-5.508-3.145a12.013,12.013,0,0,1,5.508-9.452Z" transform="translate(-212.028 -65.564)" fill="#f12e52"/>
      <path id="Path_4450" data-name="Path 4450" d="M268.691,247.838,286.939,237.3c1.078-.62,1.95-.18,1.95.979a4.169,4.169,0,0,1-1.95,3.235l-18.248,10.539c-1.069.62-1.941.18-1.941-.988a4.178,4.178,0,0,1,1.941-3.226Z" transform="translate(-213.667 -63.948)" fill="#f12e52"/>
      <g id="Group_748" data-name="Group 748" transform="translate(53.083 173.069)" opacity="0.7">
        <path id="Path_4451" data-name="Path 4451" d="M268.691,247.838,286.939,237.3c1.078-.62,1.95-.18,1.95.979a4.169,4.169,0,0,1-1.95,3.235l-18.248,10.539c-1.069.62-1.941.18-1.941-.988a4.178,4.178,0,0,1,1.941-3.226Z" transform="translate(-266.75 -237.017)" fill="#fff"/>
      </g>
      <path id="Path_4452" data-name="Path 4452" d="M268.08,256.526l12.516-7.188c.737-.422,1.33-.126,1.33.674a2.866,2.866,0,0,1-1.33,2.219l-12.516,7.188c-.737.422-1.33.117-1.33-.674a2.857,2.857,0,0,1,1.33-2.219Z" transform="translate(-213.667 -65.179)" fill="#f12e52"/>
      <g id="Group_749" data-name="Group 749" transform="translate(53.083 183.967)" opacity="0.7">
        <path id="Path_4453" data-name="Path 4453" d="M268.08,256.526l12.516-7.188c.737-.422,1.33-.126,1.33.674a2.866,2.866,0,0,1-1.33,2.219l-12.516,7.188c-.737.422-1.33.117-1.33-.674a2.857,2.857,0,0,1,1.33-2.219Z" transform="translate(-266.75 -249.146)" fill="#fff"/>
      </g>
      <path id="Path_4454" data-name="Path 4454" d="M254.611,163.923l69.1-39.893c1.078-.62,1.95-.117,1.95,1.123v69.013a4.313,4.313,0,0,1-1.95,3.378l-69.1,40.127c-1.078.62-1.941.117-1.941-1.123V167.292A4.286,4.286,0,0,1,254.611,163.923Z" transform="translate(-212.238 -52.451)" fill="#f5f5f5"/>
      <path id="Path_4455" data-name="Path 4455" d="M279.978,182.367a1.716,1.716,0,0,0-3.019.35L252.7,228.792v10.4c0,1.24.9,1.743,1.941,1.123l69.1-39.92a4.313,4.313,0,0,0,1.95-3.378v-23L312.566,150.7c-.728-1.3-1.743-1.222-2.273.171l-17.476,46.317Z" transform="translate(-212.241 -55.091)" fill="#f12e52"/>
      <g id="Group_750" data-name="Group 750" transform="translate(40.459 94.677)" opacity="0.3">
        <path id="Path_4456" data-name="Path 4456" d="M279.978,182.367a1.716,1.716,0,0,0-3.019.35L252.7,228.792v10.4c0,1.24.9,1.743,1.941,1.123l69.1-39.92a4.313,4.313,0,0,0,1.95-3.378v-23L312.566,150.7c-.728-1.3-1.743-1.222-2.273.171l-17.476,46.317Z" transform="translate(-252.7 -149.768)" fill="#fff"/>
      </g>
      <path id="Path_4457" data-name="Path 4457" d="M259.957,186.279c6.092-3.5,11.042-12.013,11.042-19.021,0-3.594-1.294-6.056-3.351-7.188l-13.037,7.52a4.286,4.286,0,0,0-1.941,3.369v16.3C254.611,188.13,257.153,187.86,259.957,186.279Z" transform="translate(-212.238 -56.137)" fill="#f12e52"/>
      <g id="Group_751" data-name="Group 751" transform="translate(40.432 103.933)" opacity="0.6">
        <path id="Path_4458" data-name="Path 4458" d="M259.957,186.279c6.092-3.5,11.042-12.013,11.042-19.021,0-3.594-1.294-6.056-3.351-7.188l-13.037,7.52a4.286,4.286,0,0,0-1.941,3.369v16.3C254.611,188.13,257.153,187.86,259.957,186.279Z" transform="translate(-252.67 -160.07)" fill="#fff"/>
      </g>
      <path id="Path_4459" data-name="Path 4459" d="M254.611,269.46l69.1-39.9c1.078-.62,1.95-.18,1.95.988a4.169,4.169,0,0,1-1.95,3.226l-69.1,39.9c-1.078.62-1.941.18-1.941-.988A4.142,4.142,0,0,1,254.611,269.46Z" transform="translate(-212.238 -63.162)" fill="#f12e52"/>
      <g id="Group_752" data-name="Group 752" transform="translate(40.432 166.115)" opacity="0.6">
        <path id="Path_4460" data-name="Path 4460" d="M254.611,269.46l69.1-39.9c1.078-.62,1.95-.18,1.95.988a4.169,4.169,0,0,1-1.95,3.226l-69.1,39.9c-1.078.62-1.941.18-1.941-.988A4.142,4.142,0,0,1,254.611,269.46Z" transform="translate(-252.67 -229.277)" fill="#fff"/>
      </g>
      <path id="Path_4461" data-name="Path 4461" d="M254.611,278.843l69.1-39.875c1.078-.62,1.95-.18,1.95.988a4.169,4.169,0,0,1-1.95,3.226l-69.1,39.9c-1.078.62-1.941.18-1.941-.988a4.151,4.151,0,0,1,1.941-3.253Z" transform="translate(-212.238 -64.117)" fill="#f12e52"/>
      <g id="Group_753" data-name="Group 753" transform="translate(40.432 174.57)" opacity="0.6">
        <path id="Path_4462" data-name="Path 4462" d="M254.611,278.843l69.1-39.875c1.078-.62,1.95-.18,1.95.988a4.169,4.169,0,0,1-1.95,3.226l-69.1,39.9c-1.078.62-1.941.18-1.941-.988a4.151,4.151,0,0,1,1.941-3.253Z" transform="translate(-252.67 -238.687)" fill="#fff"/>
      </g>
      <path id="Path_4463" data-name="Path 4463" d="M266.386,123.394l49.3-28.437c1.509-.9,2.7-.162,2.7,1.572h0a5.984,5.984,0,0,1-2.7,4.708L266.4,129.593c-1.509.9-2.7.18-2.7-1.527a5.984,5.984,0,0,1,2.686-4.672Z" transform="translate(-213.358 -49.488)" fill="#fafafa"/>
    </g>
    <g id="freepik--character-4--inject-2" transform="translate(343.869 132.618)">
      <path id="Path_4464" data-name="Path 4464" d="M427.117,186.68l3.5,6.406-5.436,4.663-4.987-7.9Z" transform="translate(-382.609 -147.062)" fill="#f28f8f"/>
      <path id="Path_4465" data-name="Path 4465" d="M413.3,170.79c3.468,0,7.287,1.294,8.6,4.016l5.391,11.177s-3.064,4.492-7.925,4.169Z" transform="translate(-381.91 -145.449)" fill="#e0e0e0"/>
      <path id="Path_4466" data-name="Path 4466" d="M427.12,194.522c1.015-1.887,1.267-1.977,1.869-2.39s4.3-.961,5.84-1.1c1.8-.153,2.453.18,1.95,1.734a78.166,78.166,0,0,1-5.067,11.375c-.485.638-.575,1.231-2.615,1.438-1.9.18-4.277.288-4.978.323s-1.671.225-1.051-1.842a67.393,67.393,0,0,1,2.785-6.855C426.635,195.493,427.12,194.522,427.12,194.522Z" transform="translate(-382.881 -147.501)" fill="#f12e52"/>
      <path id="Path_4467" data-name="Path 4467" d="M382.116,265.658c-.9-.449-1.411.647-2.192,1.527a6.5,6.5,0,0,0-1.536,2.3c-.189,1.033.755,2.7,1.8,3.594s2.246,1.554,2.624,3.531a4.834,4.834,0,0,0,3.2,4.043c2.246.97,5.256.656,6.289,0,1.2-.782.1-1.644-1.59-4.07-2.21-3.163-3.935-5.391-3.935-8.383Z" transform="translate(-378.363 -155.068)" fill="#263238"/>
      <path id="Path_4468" data-name="Path 4468" d="M384.255,262.78l-1.8,2.7a2.543,2.543,0,0,0,.611,3.54l.054.045a2.758,2.758,0,0,0,3.477-.548l2.839-3.091Z" transform="translate(-378.732 -154.787)" fill="#ffa8a7"/>
      <path id="Path_4469" data-name="Path 4469" d="M417.831,204.94c.117,3.4-.845,17.116-3.19,23.181s-3.7,9.838-4.439,11.105-22,21.95-22,21.95a4.643,4.643,0,0,1-4.178-3.756s8.706-14.807,10.593-17.844,8.572-7.691,8.572-7.691l-.611-26.559Z" transform="translate(-378.938 -148.915)" fill="#37474f"/>
      <path id="Path_4470" data-name="Path 4470" d="M386.6,200.086c0-.584,1.8-7.3,2.7-10.4l6.586,2.264-1.545,4.888-5.8,5.993A2.444,2.444,0,0,1,386.6,200.086Z" transform="translate(-379.196 -147.367)" fill="#ffa8a7"/>
      <rect id="Rectangle_973" data-name="Rectangle 973" width="4.609" height="6.712" transform="translate(38.704 127.284) rotate(167.19)" fill="#ffa8a7"/>
      <path id="Path_4471" data-name="Path 4471" d="M419.122,204.938H397.558a74.989,74.989,0,0,0-.809,9.506c-.171,9.344,8.527,26.317,8.527,26.317a35.706,35.706,0,0,0,.557,11.312c1.9,7.44,7.1,20.045,7.1,20.045s3.262.458,4.87-1.42c0,0-2.875-25.58-3.648-32.13-.836-7.1-2.992-20.045-2.992-20.045a32.853,32.853,0,0,0,3.855-4.618,23,23,0,0,0,4.1-8.985" transform="translate(-380.229 -148.913)" fill="#37474f"/>
      <path id="Path_4472" data-name="Path 4472" d="M403.644,170.976c-4.133,1-9.767,2.291-11.393,6.766s-3.971,12.408-3.971,12.408c.9,1.572,5.885,2.875,7.619,1.968l.809-2.7v12.022c3.235,3.522,14.5,5.157,21.564,0V178.981c0-3.594-1.995-7.907-7.5-8.221Z" transform="translate(-379.37 -145.446)" fill="#ebebeb"/>
      <path id="Path_4473" data-name="Path 4473" d="M397.66,190.822l2.076-6.532-2.076,9.452Z" transform="translate(-380.322 -146.819)" fill="#e0e0e0"/>
      <path id="Path_4474" data-name="Path 4474" d="M403.353,150.568a2.471,2.471,0,0,0-2.031.719c-.9.9-.692,2.543,0,6.343l2.7.305Z" transform="translate(-380.633 -143.395)" fill="#263238"/>
      <path id="Path_4475" data-name="Path 4475" d="M420.972,149.3a4.268,4.268,0,0,0,1.653-.314c.827-.476,1.042.467.584,1.285a3.846,3.846,0,0,1-3.127,2.085c0-.117-.773-2.111-.773-2.111Z" transform="translate(-382.52 -143.222)" fill="#263238"/>
      <path id="Path_4476" data-name="Path 4476" d="M404.543,157.594c-.4.243-.97-.53-1.465-1.042a1.734,1.734,0,0,0-2.911.467c-.818,1.725,1.042,4.025,2.138,4.78a1.9,1.9,0,0,0,2.237.2l.288,6.6a7.062,7.062,0,0,0,5.31,4.034c3.882.521,3.082-2.7,1.8-4.241V166a9.318,9.318,0,0,0,2.956.144c.5-.135,1.707-1.59,2.489-3.226a14.654,14.654,0,0,0,1.033-10.584c-1.393-5.912-7.745-6.092-11.528-3.711S404.543,157.594,404.543,157.594Z" transform="translate(-380.556 -143.053)" fill="#ffa8a7"/>
      <path id="Path_4477" data-name="Path 4477" d="M404.865,157.8c-.2,0-.961-1.267-1.465-1.716-.692-.629.2-6.289.2-6.289a3.891,3.891,0,0,1,.674-3.594c1.366-1.438,4.007-1.195,5.939-1.258a17.539,17.539,0,0,0,6.918-1.393c2.749-1.195,2.956-1.33,3.288-.126a6.7,6.7,0,0,1-1.168,5.822l-.9,1.456a7.032,7.032,0,0,1-3.4,1.015c-2.561.314-6.927-1.069-7.475-1.141-.746-.1-.9.62-1.3,2.588C405.835,154.863,405.548,157.792,404.865,157.8Z" transform="translate(-380.878 -142.586)" fill="#263238"/>
      <path id="Path_4478" data-name="Path 4478" d="M403.386,150.838l-2.426-1.3a1.339,1.339,0,0,1,1.8-.611,1.447,1.447,0,0,1,.629,1.914Z" transform="translate(-380.657 -143.215)" fill="#263238"/>
      <path id="Path_4479" data-name="Path 4479" d="M412.547,167.769a27.853,27.853,0,0,1-4.843-1.393,4.2,4.2,0,0,1-1.734-1.716,5.616,5.616,0,0,0,.988,2.022c.9,1.177,5.589,2.04,5.589,2.04Z" transform="translate(-381.165 -144.827)" fill="#f28f8f"/>
      <path id="Path_4480" data-name="Path 4480" d="M413.258,158.545a.719.719,0,1,1-.719-.755A.737.737,0,0,1,413.258,158.545Z" transform="translate(-381.759 -144.129)" fill="#263238"/>
      <path id="Path_4481" data-name="Path 4481" d="M412.383,155.551l-1.536.9a.89.89,0,0,1,1.536-.9Z" transform="translate(-381.649 -143.858)" fill="#263238"/>
      <path id="Path_4482" data-name="Path 4482" d="M412.924,164l1.644.62a.879.879,0,1,1-1.644-.62Z" transform="translate(-381.866 -144.76)" fill="#f28f8f"/>
      <path id="Path_4483" data-name="Path 4483" d="M420.4,156.109l-1.4-1.078a.884.884,0,1,1,1.4,1.078Z" transform="translate(-382.488 -143.814)" fill="#263238"/>
      <path id="Path_4484" data-name="Path 4484" d="M419.918,158.315a.719.719,0,1,1-.719-.755.746.746,0,0,1,.719.755Z" transform="translate(-382.435 -144.106)" fill="#263238"/>
      <path id="Path_4485" data-name="Path 4485" d="M416.234,158.3l-.674,4.277,2.363-.279Z" transform="translate(-382.139 -144.181)" fill="#f28f8f"/>
      <path id="Path_4486" data-name="Path 4486" d="M420.305,281.747l-.144-.647c.467.09,2.489,3.441,4.492,4.9,2.192,1.59,4.088,2.534,5.068,3.253,1.312.961-.584,2.929-3.81,3.109-1.6.081-4.492-.4-5.391-1.258s-1.545-2.264-2.264-2.875-2.147-1.15-2.642-1.932a5.741,5.741,0,0,1-.279-2.417c0-.845.063-1.8.35-1.752l.108.485a5.535,5.535,0,0,0,2.7.6C419.272,283.176,420.683,283,420.305,281.747Z" transform="translate(-382.113 -156.647)" fill="#263238"/>
      <path id="Path_4487" data-name="Path 4487" d="M415.226,235.412s-1.914-13.594-2.426-15.7a21.691,21.691,0,0,0,4.259-3.046,36.077,36.077,0,0,1-2.911,3.639Z" transform="translate(-381.859 -150.106)" fill="#263238"/>
      <path id="Path_4488" data-name="Path 4488" d="M402.65,237a61.227,61.227,0,0,0,3.235,6.99s-.234,4.367-.207,5.247l-1.2,1.051a27.611,27.611,0,0,1,.539-5.885,35.5,35.5,0,0,1-2.363-7.4Z" transform="translate(-380.828 -152.17)" fill="#263238"/>
      <path id="Path_4489" data-name="Path 4489" d="M394.575,197.291s18.123,1.941,20.252,1.285,4.987-2.767,6.487-3.666,2.642-.952,2.642-.584-1.312,2.372-1.608,3.208,1.411.836,3.666.314,3.154-1.8,3.738-1.06-1.249,4.492-4.987,5.9-6.514.467-9.6.6-22.13,1.348-26.416,0a3.783,3.783,0,0,1,1.483-3.657A13.666,13.666,0,0,1,394.575,197.291Z" transform="translate(-379.412 -147.816)" fill="#ffa8a7"/>
    </g>
    <g id="freepik--character-3--inject-2" transform="translate(258.539 215.418)">
      <path id="Path_4490" data-name="Path 4490" d="M283.417,292.826c.045-.584,1.15-6.873,1.9-10.4l7.395,2.264-1.186,4.933-6.146,5.948A2.444,2.444,0,0,1,283.417,292.826Z" transform="translate(-283.392 -239.581)" fill="#ffa8a7"/>
      <path id="Path_4491" data-name="Path 4491" d="M300.33,234.74h3.594a10,10,0,0,1,10,10v25.481H290.33V244.74A10,10,0,0,1,300.33,234.74Z" transform="translate(-284.096 -234.74)" fill="#263238"/>
      <path id="Path_4492" data-name="Path 4492" d="M322.447,279.29l3.5,6.406L320.5,290.35l-4.978-7.9Z" transform="translate(-286.653 -239.262)" fill="#f28f8f"/>
      <path id="Path_4493" data-name="Path 4493" d="M308.63,263.39c3.468,0,7.287,1.294,8.6,4.016l5.391,11.177s-3.064,4.492-7.925,4.178Z" transform="translate(-285.954 -237.648)" fill="#455a64"/>
      <path id="Path_4494" data-name="Path 4494" d="M310.672,385.938a31.633,31.633,0,0,0,4.007,4.421,1.914,1.914,0,0,1,.548.71c.153.467.35,1.59-1.725,2.049a7.5,7.5,0,0,1-6.1-1.321c-1.518-1.222-1.339-3.369-2.74-4.78-1.042-1.033-2.453-1.438-3.235-2.7-.548-.9-.252-1.968.243-3.288s.845-2.525,1.321-2.354l-.162.665c.494,1.051,3.594,1.716,5.112,1.213A58.408,58.408,0,0,0,310.672,385.938Z" transform="translate(-285.193 -249.35)" fill="#263238"/>
      <path id="Path_4495" data-name="Path 4495" d="M312.079,387.006h0c-.422-.494-.836-1-1.222-1.545a37.023,37.023,0,0,1-2.129-4.106,3.684,3.684,0,0,1-.2-2.7l1.024-3.459-5.391-1.24-1.168,4.843h0c-.252,1.105.548,2.2,2.013,3.8s3.154,5.121,4.492,6.119,2.435,1.1,3.118.755S313.471,388.821,312.079,387.006Z" transform="translate(-285.377 -248.872)" fill="#ffa8a7"/>
      <path id="Path_4496" data-name="Path 4496" d="M294.878,390.063V389.3c.305.9,1.689,4.726,3.792,6.649,1.68,1.518,3.962,3.288,4.537,4.987s-3.172,2.363-4.735,2.085a9.641,9.641,0,0,1-5.445-2.92c-.9-1.105-1.474-2.417-2.12-3.288s-2.12-1.8-2.462-2.839a6.4,6.4,0,0,1,.3-2.785c.252-.9.512-1.968.836-1.887v.629a4.259,4.259,0,0,0,2.7.9C293.01,390.827,294.887,390.656,294.878,390.063Z" transform="translate(-283.901 -250.429)" fill="#263238"/>
      <path id="Path_4497" data-name="Path 4497" d="M300.321,396.8l-1.518-1.348a15.563,15.563,0,0,1-3.235-5.166,7.278,7.278,0,0,1-.557-2.794V384.46h-5.3v4.924h0v.135h0c.252,1.105,2.7,4.034,4.07,5.948a7.736,7.736,0,0,0,4.8,3.2C300.6,398.935,301.651,398.306,300.321,396.8Z" transform="translate(-284.033 -249.938)" fill="#ffa8a7"/>
      <path id="Path_4498" data-name="Path 4498" d="M290.606,298.246c-4.106,8.985.153,40.621.153,40.621-.126,1.465-1.8,4.331-2.408,10.782-.737,7.583,1.15,26.613,1.15,26.613a5.723,5.723,0,0,0,5.391.216s5.058-28.671,6.011-36.209l3.037-24.187,4.492,23.6a29.988,29.988,0,0,0-2.965,5.894c-1.069,3.333-3.235,22.327-3.235,22.327a6.5,6.5,0,0,0,5.481,1.608s10.378-26.056,10.845-31.375c.279-3.19-4.376-41.169-4.376-41.169Z" transform="translate(-283.878 -241.057)" fill="#37474f"/>
      <path id="Path_4499" data-name="Path 4499" d="M305.68,317.207l.719-5.193s5.652-1.168,8.212-3.594a14.619,14.619,0,0,1-6.676,4.439l-.755,5.014.9,11.617Z" transform="translate(-285.655 -242.219)" fill="#263238"/>
      <path id="Path_4500" data-name="Path 4500" d="M298.123,263.633h0a10.4,10.4,0,0,0-6.963,5.7,8.985,8.985,0,0,0-.252,6.793l3.621,10.629s-1.716,4.16-3.72,8.086c9.227,5.148,20.737,2.444,23.513-1.312.117-.8-.045-4.394.18-8.473.234-4.358.836-9.281.153-11.968-1.276-5-3.657-9.695-8.392-9.695Z" transform="translate(-284.099 -237.648)" fill="#455a64"/>
      <path id="Path_4501" data-name="Path 4501" d="M296.138,263.66c-3.145.44-7.763,1.078-9.362,8.554s-2.076,10.216-2.076,10.216a10.459,10.459,0,0,0,7.8,2.983l1.626-5.75Z" transform="translate(-283.525 -237.676)" fill="#455a64"/>
      <path id="Path_4502" data-name="Path 4502" d="M298.953,268.854h0a4.133,4.133,0,0,1-4.133-4.133V252.69h4.133Z" transform="translate(-284.552 -236.562)" fill="#263238"/>
      <path id="Path_4503" data-name="Path 4503" d="M310.456,240.05c1.249.737,2.785,3.872,2.633,10.44-.126,5.571-1.932,6.954-2.839,7.35s-2.651.153-4.349-.135v3.342s2.345,2.7,2.2,4.268-3.4,1.9-5.6.4a14.376,14.376,0,0,1-3.594-3.774v-8.086a2.138,2.138,0,0,1-3.028.288c-1.878-1.249-1.95-4.331-.854-5.391s3.441-.755,3.881.773a13.4,13.4,0,0,0,6.289-1.887,10.126,10.126,0,0,0,5.256-7.583Z" transform="translate(-284.501 -235.279)" fill="#ffa8a7"/>
      <path id="Path_4504" data-name="Path 4504" d="M308.132,250.042a.7.7,0,1,1-.737-.692.71.71,0,0,1,.737.692Z" transform="translate(-285.761 -236.223)" fill="#263238"/>
      <path id="Path_4505" data-name="Path 4505" d="M308.5,255.37l1.626.521a.836.836,0,0,1-1.06.584A.9.9,0,0,1,308.5,255.37Z" transform="translate(-285.937 -236.834)" fill="#f28f8f"/>
      <path id="Path_4506" data-name="Path 4506" d="M314.521,247.565l-1.411-.979a.827.827,0,0,1,1.177-.243A.9.9,0,0,1,314.521,247.565Z" transform="translate(-286.409 -235.903)" fill="#263238"/>
      <path id="Path_4507" data-name="Path 4507" d="M314.162,249.475a.719.719,0,0,1-.665.764.728.728,0,0,1-.737-.692.7.7,0,1,1,1.4-.072Z" transform="translate(-286.373 -236.168)" fill="#263238"/>
      <path id="Path_4508" data-name="Path 4508" d="M310.64,249.11l.117,4.214,2.219-.692Z" transform="translate(-286.158 -236.199)" fill="#f28f8f"/>
      <path id="Path_4509" data-name="Path 4509" d="M306.526,259.389c-1.8-.234-5.481-1.294-6.056-2.749a3.746,3.746,0,0,0,1.294,1.86c1.1.943,4.762,2.013,4.762,2.013Z" transform="translate(-285.126 -236.963)" fill="#f28f8f"/>
      <path id="Path_4510" data-name="Path 4510" d="M322.436,287.122c1.015-1.887,1.267-1.968,1.878-2.381s4.3-.97,5.84-1.105c1.8-.153,2.453.18,1.95,1.743a79.426,79.426,0,0,1-5.1,11.366c-.485.647-.584,1.24-2.615,1.438s-4.286.288-4.987.332-1.671.216-1.042-1.851a68.368,68.368,0,0,1,2.776-6.855C321.951,288.111,322.436,287.122,322.436,287.122Z" transform="translate(-286.921 -239.7)" fill="#f12e52"/>
      <path id="Path_4511" data-name="Path 4511" d="M291.75,290.1s16.433,1.734,18.563,1.078,4.987-2.785,6.523-3.666,2.642-.952,2.642-.593-1.312,2.381-1.617,3.208,1.42.836,3.666.314,3.154-1.8,3.747-1.06-1.249,4.492-4.987,5.9-6.514.476-9.6.6-20.791,1.509-25.077.162a3.783,3.783,0,0,1,1.483-3.657,13.1,13.1,0,0,1,4.663-2.291Z" transform="translate(-283.612 -240.016)" fill="#ffa8a7"/>
      <path id="Path_4512" data-name="Path 4512" d="M293.77,285.121a55.7,55.7,0,0,0,1.8-5.831s-.3,4.34-1.518,6.667Z" transform="translate(-284.446 -239.262)" fill="#37474f"/>
    </g>
    <g id="freepik--character-2--inject-2" transform="translate(125.63 167.019)">
      <path id="Path_4513" data-name="Path 4513" d="M145.45,226.31l-2.92,6.307,5.436,4.654,4.7-7.934Z" transform="translate(-136.184 -185.485)" fill="#f28f8f"/>
      <path id="Path_4514" data-name="Path 4514" d="M159.119,210.25c-3.468,0-7.287,1.3-8.6,4.016s-5.391,11.186-5.391,11.186,3.064,4.492,7.925,4.169Z" transform="translate(-136.448 -183.855)" fill="#37474f"/>
      <rect id="Rectangle_974" data-name="Rectangle 974" width="4.798" height="6.981" transform="translate(32.914 126.478)" fill="#ffa8a7"/>
      <rect id="Rectangle_975" data-name="Rectangle 975" width="4.798" height="6.981" transform="translate(16.049 118.004) rotate(-1.97)" fill="#ffa8a7"/>
      <path id="Path_4515" data-name="Path 4515" d="M174.165,245.78c0,4.582.593,34.2.593,34.2.117,1.312,1.348,3.747,1.078,8.805-.359,6.873-.952,25.966-.952,25.966s-2.246,2.228-5.391,0c0,0-4.349-25.948-5.2-32.759-.755-5.939-2.022-22.085-2.022-22.085l-4.448,19s.782,4.492.961,7.619-.818,21.375-.818,21.375a5.256,5.256,0,0,1-5.22.2s-3.846-26.613-4.34-29.461,3.369-32.858,3.369-32.858Z" transform="translate(-136.776 -187.462)" fill="#37474f"/>
      <path id="Path_4516" data-name="Path 4516" d="M167.332,210.467h.072a9.506,9.506,0,0,1,7.188,9.245v22.462c-3.36,3.657-15.077,5.391-22.462,0V218.814c0-3.729,2.076-8.221,7.8-8.554Z" transform="translate(-137.159 -183.856)" fill="#455a64"/>
      <path id="Path_4517" data-name="Path 4517" d="M170.772,189.218a2.57,2.57,0,0,1,2.111.746c.9.9.719,2.651,0,6.595l-2.8.323Z" transform="translate(-138.981 -181.719)" fill="#263238"/>
      <path id="Path_4518" data-name="Path 4518" d="M152.344,187.945a4.492,4.492,0,0,1-1.752-.35c-.9-.494-1.087.485-.62,1.33a4.007,4.007,0,0,0,3.262,2.165c0-.117.8-2.183.8-2.183Z" transform="translate(-136.915 -181.542)" fill="#263238"/>
      <path id="Path_4519" data-name="Path 4519" d="M167.689,196.527c.422.252,1.015-.548,1.527-1.087a1.8,1.8,0,0,1,3.028.494c.9,1.8-1.087,4.187-2.219,4.969a2,2,0,0,1-2.336.207l-.3,6.864a7.332,7.332,0,0,1-5.526,4.2c-4.034.548-3.2-2.776-1.878-4.412v-2.5a9.568,9.568,0,0,1-3.064.162c-.53-.144-1.8-1.662-2.6-3.36a15.271,15.271,0,0,1-1.069-11.006c1.447-6.155,8.086-6.343,11.986-3.864S167.689,196.527,167.689,196.527Z" transform="translate(-137.219 -181.363)" fill="#ffa8a7"/>
      <path id="Path_4520" data-name="Path 4520" d="M167.526,196.738c.216,0,1.006-1.312,1.527-1.8.719-.656-.207-6.577-.207-6.577a4.032,4.032,0,0,0-.692-3.729c-1.42-1.491-4.178-1.24-6.191-1.312a18.033,18.033,0,0,1-7.188-1.447c-2.857-1.24-3.073-1.384-3.423-.135a6.963,6.963,0,0,0,1.213,6.056l1.42.521s.764.683,3.432,1.006a40.136,40.136,0,0,0,7.386-.135c.773-.108.9.638,1.357,2.7C166.52,193.683,166.825,196.729,167.526,196.738Z" transform="translate(-137.056 -180.873)" fill="#263238"/>
      <path id="Path_4521" data-name="Path 4521" d="M170.822,189.5l2.525-1.357a1.384,1.384,0,0,0-1.9-.629,1.509,1.509,0,0,0-.62,1.986Z" transform="translate(-139.041 -181.53)" fill="#263238"/>
      <path id="Path_4522" data-name="Path 4522" d="M160.819,207.1a27.986,27.986,0,0,0,5.041-1.447,4.268,4.268,0,0,0,1.8-1.8,5.84,5.84,0,0,1-1.024,2.1c-.952,1.222-5.822,2.12-5.822,2.12Z" transform="translate(-138.04 -183.206)" fill="#f28f8f"/>
      <path id="Path_4523" data-name="Path 4523" d="M161.82,196.623a.755.755,0,1,0,.746-.773.764.764,0,0,0-.746.773Z" transform="translate(-138.143 -182.393)" fill="#263238"/>
      <path id="Path_4524" data-name="Path 4524" d="M162.7,193.515l1.608.9a.97.97,0,0,0-.377-1.276.9.9,0,0,0-1.231.377Z" transform="translate(-138.232 -182.107)" fill="#263238"/>
      <path id="Path_4525" data-name="Path 4525" d="M161.687,202.36l-1.707.647a.9.9,0,0,0,1.159.566A.952.952,0,0,0,161.687,202.36Z" transform="translate(-137.956 -183.054)" fill="#f28f8f"/>
      <path id="Path_4526" data-name="Path 4526" d="M154.369,194.089l1.447-1.132a.9.9,0,0,0-1.276-.2.97.97,0,0,0-.171,1.33Z" transform="translate(-137.367 -182.061)" fill="#263238"/>
      <path id="Path_4527" data-name="Path 4527" d="M154.889,196.384a.764.764,0,0,0,.746.773.773.773,0,0,0,.755-.782.755.755,0,1,0-1.5,0Z" transform="translate(-137.439 -182.362)" fill="#263238"/>
      <path id="Path_4528" data-name="Path 4528" d="M158.847,195.69l-.252,4.5-2.345-.8Z" transform="translate(-137.577 -182.377)" fill="#f28f8f"/>
      <path id="Path_4529" data-name="Path 4529" d="M171.243,326.689V326c-.458.2-1.527,4.268-3.423,6-1.518,1.375-3.594,2.974-4.106,4.492s2.875,2.48,4.286,2.228c1.644-.288,4.492-1.447,5.2-2.516s1.051-2.651,1.626-3.441,1.923-1.662,2.237-2.57a5.831,5.831,0,0,0-.279-2.516c-.225-.845-.458-1.8-.746-1.7v.521a3.765,3.765,0,0,1-2.4.809C172.951,327.363,171.234,327.228,171.243,326.689Z" transform="translate(-138.33 -195.602)" fill="#263238"/>
      <path id="Path_4530" data-name="Path 4530" d="M152.263,318.286c-.252,0-.458.359-1.006.952a10.261,10.261,0,0,1-2.821,2.031c-1.8.9-5.283,2.282-6.864,2.992-.979.449-.9,1.635.081,2.318s3.486,1.168,6.442.5c1.608-.359,3.711-1.842,5.032-1.8s3.81.063,4.789-.611.593-2.12.314-3.36-.737-3.414-1.186-3.324v.422c-.575.9-3.513,1.231-4.78.593Z" transform="translate(-136.017 -194.792)" fill="#263238"/>
      <path id="Path_4531" data-name="Path 4531" d="M145.3,233.992c-1.015-1.9-1.267-1.977-1.878-2.39s-4.3-.97-5.84-1.1c-1.8-.153-2.453.18-1.95,1.734a80.084,80.084,0,0,0,5.068,11.375c.485.638.584,1.231,2.615,1.429s4.286.288,4.987.332,1.671.216,1.042-1.851a69.26,69.26,0,0,0-2.776-6.855C145.829,234.972,145.3,233.992,145.3,233.992Z" transform="translate(-135.467 -185.908)" fill="#f12e52"/>
      <path id="Path_4532" data-name="Path 4532" d="M186.352,239.556c-.045-.593-1.8-7.3-2.7-10.4l-6.577,2.264,1.545,4.879,5.786,5.993A2.435,2.435,0,0,0,186.352,239.556Z" transform="translate(-139.692 -185.775)" fill="#ffa8a7"/>
      <path id="Path_4533" data-name="Path 4533" d="M174.778,236.751s-18.132,1.941-20.261,1.285-4.987-2.785-6.523-3.666-2.642-.952-2.642-.584,1.312,2.372,1.617,3.2-1.42.836-3.666.314-3.154-1.8-3.747-1.06,1.249,4.492,4.987,5.9,6.514.476,9.6.6,22.13,1.348,26.416,0a3.765,3.765,0,0,0-1.483-3.648A13.81,13.81,0,0,0,174.778,236.751Z" transform="translate(-135.872 -186.223)" fill="#ffa8a7"/>
      <path id="Path_4534" data-name="Path 4534" d="M170.74,211.06c2.848.943,8.5,1.42,10.324,7.583s2.74,10.162,2.74,10.162c-1.078,1.438-5.391,3.1-7.368,2.48Z" transform="translate(-139.048 -183.937)" fill="#455a64"/>
      <path id="Path_4535" data-name="Path 4535" d="M176.86,232.788l-1.95-6.918,1.95,9.74Z" transform="translate(-139.471 -185.441)" fill="#37474f"/>
    </g>
    <g id="freepik--character-1--inject-2" transform="translate(78.568 204.109)">
      <path id="Path_4536" data-name="Path 4536" d="M129.734,249.164c-.09.117-.854,1.384-.854,1.384l-3.513,5.032-3.423,5.13a.9.9,0,0,1-1,.35l-.234-.081c-1.186-.44-2.965-1.186-5.328-2.273-1.9-.9-1.8-1.159-1.8-1.482a4.042,4.042,0,0,1,0-.773h0c.386-.737,1.581-2.579,3.19-4.906,2.857-4.151,4.232-5.993,5.085-7.188a.9.9,0,0,1,1.123-.3c1.536.512,4.654,1.851,6.289,2.516h.072C130.228,247.052,129.743,249.128,129.734,249.164Z" transform="translate(-86.182 -224.369)" fill="#f12e52"/>
      <path id="Path_4537" data-name="Path 4537" d="M129.819,249.3l-.9,1.545-3.432,5.13-3.594,5a.9.9,0,0,1-1,.35l-.234-.081c-1.186-.44-2.965-1.186-5.328-2.273-1.9-.9-1.8-1.159-1.8-1.483a4.042,4.042,0,0,1,0-.773h0c1.8.791,7.484,3.486,7.673,3.387.449-.216,4.3-6.4,6.352-9.551,1.024-1.572,1.483-2.237,1.8-2.776a.593.593,0,0,0-.126-.9h-.072a1.464,1.464,0,0,1,.764,1.069,1.393,1.393,0,0,1-.108,1.348Z" transform="translate(-86.177 -224.664)" fill="#f12e52"/>
      <path id="Path_4538" data-name="Path 4538" d="M129.819,249.3l-.9,1.545-3.432,5.13-3.594,5a.9.9,0,0,1-1,.35l-.234-.081c-1.186-.44-2.965-1.186-5.328-2.273-1.9-.9-1.8-1.159-1.8-1.483a4.042,4.042,0,0,1,0-.773h0c1.8.791,7.484,3.486,7.673,3.387.449-.216,4.3-6.4,6.352-9.551,1.024-1.572,1.483-2.237,1.8-2.776a.593.593,0,0,0-.126-.9h-.072a1.464,1.464,0,0,1,.764,1.069,1.393,1.393,0,0,1-.108,1.348Z" transform="translate(-86.177 -224.664)" opacity="0.1"/>
      <path id="Path_4539" data-name="Path 4539" d="M122.095,245.71l6.307,2.642-6.721,9.991-6.271-2.884Z" transform="translate(-86.369 -224.545)" fill="#fafafa"/>
      <path id="Path_4540" data-name="Path 4540" d="M120.582,281c1.725-.494,4.331-6.909,6.289-14.187s2.992-8.886,3.055-11.177-.1-5.3-.1-5.3l-3.414,4.987a8.985,8.985,0,0,0-.9-2.758c-.44-.9-1.267-1.608-1.941-1.069-.359.288.593,1.518.386,4.268a14.377,14.377,0,0,0,.323,3.262l-6.343,15.364Z" transform="translate(-86.626 -225.014)" fill="#ffa8a7"/>
      <path id="Path_4541" data-name="Path 4541" d="M91.518,248.984c-2-.566-3.7.5-4.645,3.693a124.667,124.667,0,0,0-3.594,18.311c-.27,2.219-.575,4.915,1.545,5.121,1.617.162,6.289-.737,7.107-1.545,1.1-1.06.9-5.337.9-5.337H90.4s.521-3.369.674-4.394c.539-3.441,1.339-7.781,1.339-7.781Z" transform="translate(-83.088 -224.863)" fill="#f28f8f"/>
      <path id="Path_4542" data-name="Path 4542" d="M104.666,245.317l-.818,7.2-7.1.827,1.024-9.551Z" transform="translate(-84.475 -224.35)" fill="#ffa8a7"/>
      <path id="Path_4543" data-name="Path 4543" d="M88.65,232.618c.584-6.649,4.187-9.38,6.972-10.045,5.625-1.321,11.177.566,13.477,4.492a9.883,9.883,0,0,1,0,7.781c-1.222,2.785-20.423-2.246-20.423-2.246" transform="translate(-83.652 -222.154)" fill="#263238"/>
      <path id="Path_4544" data-name="Path 4544" d="M111.735,237.78s1.015,2.74.746,2.947a3.943,3.943,0,0,1-1.321.234Z" transform="translate(-85.937 -223.74)" fill="#ffa8a7"/>
      <path id="Path_4545" data-name="Path 4545" d="M107.073,227.951c1.339,1.15,3.594,3.235,2.992,8.985-.665,5.948-2.1,7.556-3.073,8.131-.647.386-3.513-.288-4.843-1.069-1.653-.979-5.319-3.5-6.433-6.909-1.321-4.007-.656-8.787,2.237-10.036a9.479,9.479,0,0,1,9.12.9Z" transform="translate(-84.304 -222.573)" fill="#ffa8a7"/>
      <path id="Path_4546" data-name="Path 4546" d="M108.071,227.917a10.584,10.584,0,0,1-3.837,8.347s-.836-2.165-2.7-1.671-1.8,2.947-.467,4.277a2.7,2.7,0,0,0,2.794.764,8.158,8.158,0,0,1-2.273,4.492,10.557,10.557,0,0,1-10.6-3.684c-4.106-4.933-2.893-12.768,3.522-15.077a12.83,12.83,0,0,1,13.558,2.552Z" transform="translate(-83.648 -222.386)" fill="#263238"/>
      <path id="Path_4547" data-name="Path 4547" d="M95.22,365.981l3.064,4.259a10.144,10.144,0,0,1-4.448.9c-2.74.108-3.5-.791-3.594-1.006-.467-1,.261-2.785.458-4.322Z" transform="translate(-83.798 -236.737)" fill="#263238"/>
      <path id="Path_4548" data-name="Path 4548" d="M98.3,368.38s3.711-.243,6.289-.566,4.6.9,4,1.986-2.022,1.941-4.223,2.7c-1.878.638-4.142,1.1-6.11,1.68s-3.306,1.3-4.448.9c-1.276-.44-1.8-.952-1.716-1.878a40,40,0,0,1,1.033-3.908Z" transform="translate(-84.001 -236.935)" fill="#263238"/>
      <path id="Path_4549" data-name="Path 4549" d="M90.26,361.169s.458,3.863.494,4.7,3.774,1.1,4.492-.422l.117-4.726Z" transform="translate(-83.816 -236.22)" fill="#f28f8f"/>
      <path id="Path_4550" data-name="Path 4550" d="M94.3,363.87,93,369.737s-.135.71,2.929,1.168,7.844-1.6,8.661-2.013.9-1.249-2.093-1.087-4.061.18-4.061.18l.979-2.606Z" transform="translate(-84.094 -236.54)" fill="#ffa8a7"/>
      <path id="Path_4551" data-name="Path 4551" d="M89.614,276.45c-2.561,3.98-4.987,7.484-5.508,11.959-1.1,9.452,2.5,20.252,3.262,27.242a12.642,12.642,0,0,0-2.417,6.82c0,2.893,4.663,30.144,4.663,30.144s3.387,1.033,5.094-.449l3.208-50.136-1.689-6.1Z" transform="translate(-83.17 -227.666)" fill="#455a64"/>
      <path id="Path_4552" data-name="Path 4552" d="M98.277,303.825l-1.689-6.1a40.9,40.9,0,0,1-9.138-3.594s1.734,3.145,6.685,4.87l2.579,7.844.225,17.97Z" transform="translate(-83.531 -229.46)" fill="#37474f"/>
      <path id="Path_4553" data-name="Path 4553" d="M89.8,276.45c-1.366,2.228-4.645,6.056-3.944,9.722.845,4.492,3.235,7.574,10.557,9.758l6.864,24.861s-3.594,3.351-4.663,6.532S93.568,355,93.568,355s1.222,1.995,5.085,1.509c0,0,13.477-30.719,14.376-32.7a9.946,9.946,0,0,0,1.141-6.676c-.431-3.217-5.014-38.455-5.014-38.455Z" transform="translate(-83.359 -227.666)" fill="#455a64"/>
      <path id="Path_4554" data-name="Path 4554" d="M88.792,251.23a3.414,3.414,0,0,1,3.711-2.174c4.789,1.3,12.237,3.019,13.648,3.432h0s-.638,9.227,4.879,12.48c-.261,2.058-1.662,10.926-1.662,10.926s-6.631,3.217-12.085,1.635S90,273.665,90,273.665l2.7-4.448c-.584-1.447-2.839-6.361-4.295-10.926a13.36,13.36,0,0,1,.4-7.062Z" transform="translate(-83.596 -224.881)" fill="#fafafa"/>
      <path id="Path_4555" data-name="Path 4555" d="M92.47,269.55a48.129,48.129,0,0,0,7.107,3.513,13.387,13.387,0,0,1-6.361-1.8Z" transform="translate(-84.04 -226.965)" fill="#e0e0e0"/>
      <path id="Path_4556" data-name="Path 4556" d="M112.971,265.513a9.883,9.883,0,0,1-4.591-4.313,9.533,9.533,0,0,0,4.591,7.116Z" transform="translate(-85.655 -226.118)" fill="#e0e0e0"/>
      <path id="Path_4557" data-name="Path 4557" d="M108.205,252.88c3.01.9,4.879,1.186,6.505,2.642,2.138,1.923,4.349,12.794,4.8,15.041.782,3.89,1.644,7.934.8,9.749-.611,1.312-3.935,2.291-5.391-1.95-.305-.9-.368-1.312-.638-2.12-1.375-4.061-3.441-11.824-3.441-11.824S106.768,262.17,108.205,252.88Z" transform="translate(-85.606 -225.273)" fill="#ffa8a7"/>
      <path id="Path_4558" data-name="Path 4558" d="M91.328,225.47c-1.069.62-3,1.222-4.2,6.837a86,86,0,0,0-1.743,14.3c.045,1.743,3.657,6.586,11.276,6.128s10.387-4.924,10.387-4.924-3.747-1.527-3.45-8.086c0,0-1.321,2.6-4.942,1.294S91.328,225.47,91.328,225.47Z" transform="translate(-83.32 -222.491)" fill="#263238"/>
    </g>
  </g>
</svg>
